<?xml version="1.0" encoding="iso-8859-1"?>
<!-- Generator: Adobe Illustrator 19.0.0, SVG Export Plug-In . SVG Version: 6.00 Build 0)  -->
<svg version="1.1" id="Layer_1" xmlns="http://www.w3.org/2000/svg" xmlns:xlink="http://www.w3.org/1999/xlink" x="0px" y="0px"
	 viewBox="0 0 512.001 512.001" style="enable-background:new 0 0 512.001 512.001;" xml:space="preserve">
<path style="fill:#333E48;" d="M438.655,105.177V73.633c0-21.434-17.537-38.971-38.971-38.971H112.316
	c-21.434,0-38.971,17.537-38.971,38.971v31.543h365.311V105.177z"/>
<rect x="34.168" y="132.302" style="fill:#0071CE;" width="443.302" height="345.028"/>
<g>
	<rect x="34.168" y="425.598" style="fill:#4BB6AA;" width="59.214" height="30.063"/>
	<rect x="445.64" y="244.862" style="fill:#4BB6AA;" width="31.833" height="30.063"/>
</g>
<path style="fill:#0055B8;" d="M128,156.355c0,35.346-28.653,64.001-64.001,64.001C28.654,220.354,0,191.7,0,156.355V121.05
	c0-17.404,14.241-31.646,31.647-31.646H128V156.355z"/>
<g>
	<path style="fill:#4BB6AA;" d="M128,89.405h128v66.95c0,35.346-28.653,64.001-64.001,64.001c-35.346,0-63.999-28.655-63.999-64.001
		V89.405z"/>
	<path style="fill:#4BB6AA;" d="M384,156.355c0,35.346,28.653,64.001,64.001,64.001c35.346,0,64.001-28.655,64.001-64.001V121.05
		c0-17.404-14.241-31.646-31.647-31.646h-96.353v66.95H384z"/>
</g>
<path style="fill:#0055B8;" d="M384,89.405H256v66.95c0,35.346,28.653,64.001,64.001,64.001S384,191.7,384,156.355V89.405z"/>
<path style="fill:#00A8E1;" d="M244.806,477.34V291.053c0-22.036,18.029-40.066,40.066-40.066h99.822
	c22.036,0,40.067,18.029,40.067,40.066V477.34L244.806,477.34L244.806,477.34z"/>
<rect x="279.144" y="285.325" style="fill:#FFFFFF;" width="111.268" height="104.944"/>
<path style="fill:#00A8E1;" d="M34.168,250.987h112.701c22.036,0,40.066,18.029,40.066,40.066v63.171
	c0,22.036-18.029,40.066-40.066,40.066H34.168V250.987z"/>
<rect x="34.168" y="285.325" style="fill:#FFFFFF;" width="118.428" height="74.613"/>
<g>
</g>
<g>
</g>
<g>
</g>
<g>
</g>
<g>
</g>
<g>
</g>
<g>
</g>
<g>
</g>
<g>
</g>
<g>
</g>
<g>
</g>
<g>
</g>
<g>
</g>
<g>
</g>
<g>
</g>
</svg>
